<svg width="20" height="20" viewBox="0 0 20 20" fill="none" xmlns="http://www.w3.org/2000/svg">
<path d="M17.5 4.16675C17.5 5.54746 14.1421 6.66675 10 6.66675C5.85786 6.66675 2.5 5.54746 2.5 4.16675M17.5 4.16675C17.5 2.78604 14.1421 1.66675 10 1.66675C5.85786 1.66675 2.5 2.78604 2.5 4.16675M17.5 4.16675V15.8334C17.5 16.4965 16.7098 17.1323 15.3033 17.6012C13.8968 18.07 11.9891 18.3334 10 18.3334C8.01088 18.3334 6.10322 18.07 4.6967 17.6012C3.29018 17.1323 2.5 16.4965 2.5 15.8334V4.16675M2.5 10.0001C2.5 10.6631 3.29018 11.299 4.6967 11.7678C6.10322 12.2367 8.01088 12.5001 10 12.5001C11.9891 12.5001 13.8968 12.2367 15.3033 11.7678C16.7098 11.299 17.5 10.6631 17.5 10.0001" stroke="#656565" stroke-width="2" stroke-linecap="round" stroke-linejoin="round"/>
</svg>
