<svg width="20" height="20" viewBox="0 0 20 20" fill="none" xmlns="http://www.w3.org/2000/svg">
<g clip-path="url(#clip0_729_30387)">
<path d="M3.33341 18.3334H16.6667C17.1088 18.3334 17.5327 18.1578 17.8453 17.8453C18.1578 17.5327 18.3334 17.1088 18.3334 16.6667V3.33341C18.3334 2.89139 18.1578 2.46746 17.8453 2.1549C17.5327 1.84234 17.1088 1.66675 16.6667 1.66675H6.66675C6.22472 1.66675 5.8008 1.84234 5.48824 2.1549C5.17568 2.46746 5.00008 2.89139 5.00008 3.33341V16.6667C5.00008 17.1088 4.82449 17.5327 4.51193 17.8453C4.19937 18.1578 3.77544 18.3334 3.33341 18.3334ZM3.33341 18.3334C2.89139 18.3334 2.46746 18.1578 2.1549 17.8453C1.84234 17.5327 1.66675 17.1088 1.66675 16.6667V9.16675C1.66675 8.25008 2.41675 7.50008 3.33341 7.50008H5.00008M15.0001 11.6667H8.33342M12.5001 15.0001H8.33342M8.33342 5.00008H15.0001V8.33342H8.33342V5.00008Z" stroke="#656565" stroke-width="2" stroke-linecap="round" stroke-linejoin="round"/>
</g>
<defs>
<clipPath id="clip0_729_30387">
<rect width="20" height="20" fill="white"/>
</clipPath>
</defs>
</svg>
