<svg width="24" height="24" viewBox="0 0 24 24" fill="none" xmlns="http://www.w3.org/2000/svg">
<g clip-path="url(#clip0_4034_12777)">
<mask id="path-1-outside-1_4034_12777" maskUnits="userSpaceOnUse" x="-0.355713" y="-1.1571" width="25" height="26" fill="black">
<rect fill="white" x="-0.355713" y="-1.1571" width="25" height="26"/>
<path d="M8.15295 -0.0406525C8.24711 -0.0425976 8.34126 -0.0446044 8.43542 -0.0466678C8.74328 -0.0530025 9.05115 -0.0572987 9.35905 -0.0611832C9.438 -0.0622017 9.438 -0.0622017 9.51854 -0.0632409C10.0162 -0.0695412 10.5139 -0.0749844 11.0117 -0.0785717C11.6449 -0.0831993 12.2778 -0.0918724 12.9108 -0.106126C13.3579 -0.115844 13.8048 -0.120783 14.252 -0.122322C14.5181 -0.123365 14.7839 -0.126393 15.05 -0.134615C16.854 -0.187838 16.854 -0.187838 17.4551 0.345294C17.6883 0.568914 17.8922 0.815351 18.0826 1.07599C18.274 1.33647 18.4902 1.57525 18.7207 1.80173C18.7562 1.8369 18.7917 1.87207 18.8284 1.9083C18.8644 1.94371 18.9004 1.97912 18.9375 2.0156C19.339 2.41038 19.339 2.41038 19.522 2.62351C19.7138 2.84677 19.9231 3.0514 20.1328 3.25779C20.3714 3.49259 20.603 3.72842 20.821 3.98243C20.9891 4.17114 21.1715 4.34619 21.3515 4.52341C21.5907 4.75874 21.8227 4.99512 22.0412 5.24972C22.2347 5.46682 22.4476 5.66616 22.656 5.86878C23.3327 6.53571 23.3327 6.53571 23.3497 6.86617C23.3498 6.91289 23.3498 6.95962 23.3499 7.00776C23.3501 7.06168 23.3503 7.1156 23.3504 7.17116C23.3504 7.23067 23.3504 7.29019 23.3503 7.3515C23.3504 7.41515 23.3506 7.47881 23.3507 7.54246C23.3511 7.71778 23.3512 7.89309 23.3512 8.06841C23.3513 8.25736 23.3517 8.44631 23.352 8.63526C23.3526 9.04873 23.3529 9.46221 23.3531 9.87568C23.3532 10.134 23.3534 10.3922 23.3537 10.6505C23.3542 11.3658 23.3547 12.0812 23.3549 12.7965C23.3549 12.8423 23.3549 12.8881 23.3549 12.9353C23.3549 12.9812 23.3549 13.0271 23.3549 13.0744C23.355 13.1674 23.355 13.2605 23.355 13.3535C23.355 13.3997 23.355 13.4458 23.355 13.4934C23.3552 14.2403 23.356 14.9871 23.3571 15.734C23.3582 16.5011 23.3588 17.2682 23.3589 18.0354C23.3589 18.4659 23.3592 18.8965 23.36 19.3271C23.3608 19.694 23.361 20.0608 23.3606 20.4277C23.3604 20.6147 23.3605 20.8017 23.3611 20.9887C23.3617 21.1604 23.3617 21.332 23.3611 21.5036C23.361 21.5942 23.3615 21.6848 23.3621 21.7755C23.3589 22.3465 23.3018 22.8964 22.9219 23.3437C22.8943 23.377 22.8668 23.4102 22.8384 23.4444C22.5763 23.7333 22.1799 23.9842 21.7797 24.006C21.7354 24.0061 21.6912 24.0062 21.6456 24.0063C21.5945 24.0065 21.5435 24.0067 21.4909 24.0069C21.4345 24.0069 21.3782 24.0069 21.3202 24.0069C21.2307 24.0071 21.2307 24.0071 21.1393 24.0074C20.9734 24.0079 20.8074 24.008 20.6414 24.0082C20.4626 24.0083 20.2837 24.0088 20.1048 24.0092C19.6726 24.0101 19.2403 24.0106 18.8081 24.011C18.6045 24.0112 18.4009 24.0115 18.1974 24.0117C17.5205 24.0125 16.8437 24.0132 16.1669 24.0135C15.9912 24.0136 15.8155 24.0137 15.6398 24.0138C15.5743 24.0138 15.5743 24.0138 15.5075 24.0139C14.8005 24.0143 14.0936 24.0155 13.3866 24.017C12.6606 24.0185 11.9347 24.0194 11.2087 24.0195C10.8012 24.0196 10.3937 24.02 9.98612 24.0212C9.63895 24.0223 9.29179 24.0226 8.94462 24.0222C8.76759 24.022 8.59057 24.022 8.41355 24.023C8.22129 24.0239 8.02906 24.0235 7.83679 24.0228C7.75356 24.0236 7.75356 24.0236 7.66864 24.0244C7.11878 24.0201 6.68173 23.8667 6.28123 23.4843C5.72205 22.8986 5.73951 22.2656 5.7473 21.5019C5.74765 21.4007 5.74791 21.2995 5.7481 21.1983C5.74881 20.9334 5.75065 20.6685 5.75273 20.4037C5.75466 20.1328 5.75551 19.8619 5.75645 19.5911C5.75846 19.0607 5.76165 18.5303 5.76561 18C5.71594 18.0003 5.66627 18.0006 5.61509 18.0009C5.14613 18.0038 4.67717 18.0059 4.20821 18.0073C3.96713 18.008 3.72606 18.009 3.48498 18.0106C3.25217 18.0121 3.01936 18.013 2.78655 18.0133C2.69789 18.0136 2.60923 18.0141 2.52058 18.0148C2.39604 18.0159 2.27153 18.016 2.14699 18.0159C2.09247 18.0167 2.09247 18.0167 2.03684 18.0175C1.60271 18.015 1.30749 17.8495 0.994063 17.5534C0.705619 17.2302 0.650602 16.8531 0.649966 16.4311C0.649766 16.371 0.649566 16.3108 0.64936 16.2489C0.649376 16.1829 0.649398 16.1168 0.649424 16.0508C0.649284 15.9807 0.649124 15.9107 0.648947 15.8407C0.648534 15.651 0.648423 15.4612 0.648393 15.2715C0.64836 15.1528 0.648259 15.0342 0.648135 14.9155C0.647702 14.501 0.64751 14.0866 0.647547 13.6722C0.647575 13.2865 0.647081 12.9008 0.646341 12.5152C0.645727 12.1835 0.645476 11.8519 0.645506 11.5202C0.645518 11.3224 0.645386 11.1245 0.644889 10.9267C0.644433 10.7405 0.644432 10.5543 0.644772 10.3681C0.644821 10.3001 0.644712 10.232 0.644427 10.1639C0.642273 9.61249 0.660319 9.1535 1.03123 8.71872C1.36355 8.40932 1.69286 8.27467 2.14167 8.28088C2.18103 8.28086 2.2204 8.28084 2.26096 8.28082C2.39006 8.28092 2.51914 8.28201 2.64824 8.28312C2.73815 8.28338 2.82806 8.28358 2.91798 8.28372C3.15386 8.28425 3.38974 8.28563 3.62562 8.28719C3.86663 8.28864 4.10764 8.28927 4.34865 8.28998C4.82097 8.29149 5.29329 8.29389 5.76561 8.29685C5.76544 8.26205 5.76526 8.22726 5.76508 8.19141C5.76094 7.34315 5.75784 6.49489 5.75589 5.64662C5.75493 5.2364 5.75361 4.82618 5.75146 4.41596C5.74959 4.05824 5.74838 3.70053 5.74797 3.34281C5.74772 3.15355 5.74715 2.9643 5.74578 2.77505C5.7445 2.59656 5.74412 2.4181 5.7444 2.23961C5.74435 2.17444 5.74398 2.10927 5.74326 2.0441C5.73684 1.43647 5.85455 0.962563 6.28123 0.515599C6.83193 -0.0101128 7.432 -0.0306295 8.15295 -0.0406525ZM6.94334 1.25681C6.90437 1.30222 6.90437 1.30222 6.86461 1.34855C6.72728 1.56047 6.69139 1.76815 6.69183 2.01731C6.69171 2.07291 6.69158 2.12852 6.69144 2.18581C6.69178 2.24616 6.69212 2.30651 6.69247 2.3687C6.69249 2.43339 6.69248 2.49809 6.69242 2.56278C6.6924 2.73787 6.69295 2.91294 6.6936 3.08803C6.69419 3.2712 6.69424 3.45438 6.69436 3.63755C6.69465 3.98418 6.69542 4.3308 6.69636 4.67743C6.69741 5.07215 6.69792 5.46687 6.69839 5.8616C6.69937 6.67335 6.70102 7.4851 6.70311 8.29685C6.74471 8.29692 6.78631 8.29699 6.82918 8.29706C7.84251 8.2988 8.85583 8.30156 9.86915 8.30547C10.3592 8.30733 10.8492 8.30885 11.3393 8.30955C11.7665 8.31016 12.1937 8.31143 12.621 8.31347C12.8471 8.31453 13.0732 8.31527 13.2993 8.31522C13.5124 8.31518 13.7254 8.31603 13.9385 8.31753C14.0165 8.31793 14.0944 8.31801 14.1724 8.31775C14.9751 8.31539 14.9751 8.31539 15.3281 8.53122C15.3534 8.55651 15.3786 8.58179 15.4046 8.60785C15.4647 8.68289 15.4647 8.68289 15.5625 8.67185C15.576 8.69886 15.5894 8.72587 15.6033 8.7537C15.6369 8.82081 15.6707 8.88784 15.7048 8.95475C15.7206 8.98611 15.7365 9.01747 15.7529 9.04978C15.7689 9.08126 15.7849 9.11274 15.8014 9.14518C15.8884 9.32861 15.8968 9.47424 15.8975 9.67524C15.8977 9.70585 15.8979 9.73645 15.898 9.76799C15.8985 9.87075 15.8987 9.97351 15.8989 10.0763C15.8992 10.1499 15.8995 10.2235 15.8998 10.2971C15.9008 10.5391 15.9013 10.7811 15.9018 11.0231C15.902 11.1065 15.9022 11.1899 15.9024 11.2733C15.9033 11.6651 15.9039 12.057 15.9043 12.4489C15.9048 12.9008 15.906 13.3527 15.9079 13.8045C15.9093 14.154 15.91 14.5036 15.9102 14.8531C15.9103 15.0617 15.9107 15.2703 15.9119 15.4789C15.913 15.6754 15.9132 15.8719 15.9127 16.0684C15.9127 16.1402 15.9129 16.2121 15.9136 16.2839C15.9175 16.7502 15.8667 17.1138 15.6269 17.5195C15.32 17.8103 14.9975 17.9584 14.5779 17.9605C14.5443 17.9607 14.5107 17.961 14.476 17.9612C14.3631 17.9619 14.2502 17.9623 14.1372 17.9627C14.0564 17.9632 13.9756 17.9636 13.8947 17.9641C13.675 17.9654 13.4553 17.9664 13.2355 17.9673C13.006 17.9683 12.7765 17.9696 12.5469 17.9709C12.1121 17.9732 11.6774 17.9753 11.2426 17.9774C10.7476 17.9797 10.2527 17.9822 9.75779 17.9848C8.73956 17.9902 7.72134 17.9952 6.70311 18C6.69985 18.5497 6.69735 19.0994 6.69582 19.649C6.69509 19.9043 6.6941 20.1596 6.6925 20.4148C6.69097 20.6613 6.69013 20.9078 6.68977 21.1543C6.68951 21.2482 6.689 21.3421 6.68824 21.436C6.68721 21.5678 6.68708 21.6996 6.68714 21.8315C6.68664 21.87 6.68613 21.9085 6.68561 21.9482C6.68719 22.2448 6.73641 22.5093 6.92961 22.7457C6.97556 22.7836 6.97556 22.7836 7.02244 22.8222C7.05272 22.8482 7.08299 22.8742 7.11418 22.901C7.41301 23.0946 7.72276 23.076 8.0663 23.0753C8.12382 23.0756 8.18135 23.0758 8.24062 23.0761C8.39995 23.0766 8.55927 23.0768 8.7186 23.0768C8.89058 23.0769 9.06256 23.0775 9.23453 23.078C9.61041 23.0791 9.98628 23.0795 10.3622 23.0797C10.597 23.0799 10.8317 23.0802 11.0665 23.0805C11.7169 23.0814 12.3673 23.0822 13.0177 23.0823C13.0593 23.0823 13.1009 23.0823 13.1438 23.0823C13.2281 23.0824 13.3124 23.0824 13.3968 23.0824C13.4386 23.0824 13.4805 23.0824 13.5236 23.0824C13.5865 23.0824 13.5865 23.0824 13.6506 23.0824C14.3297 23.0826 15.0088 23.0839 15.688 23.0856C16.3856 23.0874 17.0832 23.0883 17.7808 23.0883C18.1723 23.0884 18.5639 23.0888 18.9554 23.0901C19.2888 23.0913 19.6222 23.0916 19.9556 23.0909C20.1256 23.0906 20.2955 23.0906 20.4655 23.0917C20.6501 23.0928 20.8347 23.0921 21.0192 23.0913C21.0726 23.0919 21.1259 23.0925 21.1809 23.0932C21.5248 23.0896 21.7927 23.0272 22.0781 22.8281C22.2849 22.611 22.3652 22.4048 22.3651 22.1085C22.3652 22.0562 22.3653 22.0038 22.3654 21.9498C22.3652 21.8632 22.3652 21.8632 22.365 21.7748C22.365 21.7136 22.3651 21.6524 22.3651 21.5894C22.3652 21.4192 22.365 21.249 22.3648 21.0788C22.3646 20.8955 22.3647 20.7121 22.3647 20.5287C22.3647 20.2109 22.3646 19.8931 22.3643 19.5752C22.3639 19.1157 22.3638 18.6562 22.3638 18.1966C22.3637 17.4511 22.3633 16.7056 22.3629 15.9601C22.3625 15.2358 22.3621 14.5115 22.3619 13.7872C22.3619 13.7425 22.3619 13.6979 22.3619 13.6519C22.3618 13.428 22.3618 13.2042 22.3617 12.9803C22.3612 11.1223 22.3604 9.26425 22.3594 7.40622C22.3282 7.40611 22.297 7.406 22.2648 7.40589C21.5059 7.40311 20.7469 7.39957 19.9879 7.39517C19.6209 7.39307 19.2539 7.39122 18.8868 7.38999C18.5669 7.38891 18.247 7.38734 17.9271 7.38519C17.7577 7.38407 17.5883 7.38319 17.4189 7.3829C17.2298 7.38256 17.0407 7.38114 16.8516 7.37962C16.7955 7.37968 16.7393 7.37975 16.6815 7.37982C16.6299 7.37923 16.5783 7.37865 16.5251 7.37804C16.4804 7.37782 16.4357 7.37761 16.3896 7.37739C16.2414 7.35582 16.1526 7.3051 16.0312 7.21872C15.9303 7.07465 15.9254 6.95055 15.9244 6.77733C15.9239 6.7258 15.9234 6.67427 15.9228 6.62118C15.9227 6.56487 15.9226 6.50856 15.9225 6.45055C15.9218 6.36136 15.9218 6.36136 15.9211 6.27036C15.9198 6.10748 15.9191 5.94459 15.9185 5.78171C15.9178 5.61142 15.9165 5.44113 15.9153 5.27084C15.9131 4.94845 15.9114 4.62606 15.9099 4.30367C15.9081 3.93661 15.9057 3.56955 15.9034 3.20248C15.8985 2.44748 15.8944 1.69248 15.8906 0.937474C14.8031 0.934188 13.7156 0.931709 12.628 0.930188C12.1231 0.929463 11.6181 0.928475 11.1131 0.926865C10.673 0.925463 10.2328 0.924556 9.79262 0.924243C9.55959 0.92406 9.32657 0.92363 9.09354 0.922606C8.87408 0.921649 8.65463 0.921357 8.43517 0.921568C8.35475 0.92153 8.27433 0.921251 8.19391 0.920711C8.0838 0.920007 7.97373 0.920181 7.86362 0.920563C7.80209 0.920434 7.74056 0.920304 7.67717 0.92017C7.38946 0.948267 7.13295 1.02683 6.94334 1.25681ZM16.875 1.35935C16.875 3.02997 16.875 4.7006 16.875 6.42185C18.4837 6.42185 20.0925 6.42185 21.75 6.42185C21.5682 6.17951 21.4171 5.98389 21.2067 5.77732C21.1829 5.75377 21.1591 5.73022 21.1346 5.70595C21.0597 5.63185 20.9845 5.55808 20.9092 5.48435C20.8099 5.38686 20.7109 5.28921 20.612 5.19138C20.5762 5.156 20.5762 5.156 20.5397 5.11991C20.3844 4.96519 20.2388 4.80515 20.0966 4.6384C19.9305 4.45062 19.7489 4.27734 19.5703 4.10154C19.3317 3.86673 19.1001 3.6309 18.8821 3.3769C18.714 3.18818 18.5316 3.01314 18.3515 2.83591C18.1111 2.59925 17.8771 2.36161 17.6573 2.1056C17.5222 1.95197 17.3775 1.80818 17.2324 1.66404C17.203 1.63443 17.1736 1.60482 17.1432 1.57431C17.1153 1.5464 17.0873 1.51848 17.0585 1.48972C17.0333 1.46461 17.0081 1.43951 16.9822 1.41364C16.9296 1.35412 16.9296 1.35412 16.875 1.35935ZM1.72116 9.43245C1.62432 9.58876 1.61725 9.67872 1.61743 9.86167C1.61704 9.92207 1.61664 9.98246 1.61624 10.0447C1.61675 10.1113 1.61729 10.1779 1.61783 10.2445C1.61773 10.3149 1.61755 10.3852 1.6173 10.4556C1.61684 10.6465 1.61756 10.8374 1.61851 11.0283C1.61933 11.2281 1.61917 11.4279 1.61913 11.6277C1.61922 11.9631 1.62003 12.2986 1.62131 12.634C1.62279 13.0219 1.62328 13.4098 1.62321 13.7976C1.62316 14.1708 1.62364 14.5439 1.62441 14.9171C1.62474 15.0759 1.62492 15.2347 1.62497 15.3935C1.62506 15.5804 1.62563 15.7674 1.62657 15.9543C1.62685 16.023 1.62696 16.0916 1.62691 16.1602C1.62686 16.2539 1.62745 16.3475 1.62807 16.4411C1.62823 16.4935 1.62839 16.5459 1.62855 16.5999C1.64103 16.739 1.65039 16.8108 1.73436 16.9218C1.98327 17.0975 2.23195 17.0822 2.52446 17.0803C2.60147 17.0807 2.60147 17.0807 2.68004 17.081C2.85212 17.0816 3.02419 17.0811 3.19627 17.0807C3.31962 17.0809 3.44298 17.0811 3.56633 17.0814C3.86662 17.082 4.1669 17.0819 4.46718 17.0815C4.71125 17.0812 4.95531 17.0811 5.19938 17.0813C5.23412 17.0813 5.26887 17.0813 5.30467 17.0814C5.37526 17.0814 5.44584 17.0814 5.51643 17.0815C6.17822 17.0819 6.84001 17.0814 7.5018 17.0807C8.06955 17.0801 8.63731 17.0802 9.20506 17.0808C9.86449 17.0816 10.5239 17.0819 11.1834 17.0814C11.2537 17.0814 11.324 17.0813 11.3943 17.0813C11.4462 17.0813 11.4462 17.0813 11.4992 17.0812C11.7429 17.0811 11.9867 17.0813 12.2304 17.0816C12.5586 17.0821 12.8867 17.0818 13.2148 17.081C13.3353 17.0808 13.4558 17.0808 13.5763 17.0811C13.7407 17.0815 13.9049 17.081 14.0693 17.0803C14.1411 17.0808 14.1411 17.0808 14.2143 17.0813C14.4635 17.0792 14.6462 17.0663 14.8594 16.9218C15.0572 16.6223 15.0198 16.2764 15.0182 15.9291C15.0184 15.8617 15.0186 15.7943 15.0189 15.7269C15.0196 15.5446 15.0193 15.3622 15.0189 15.1798C15.0185 14.9886 15.0188 14.7974 15.0191 14.6062C15.0193 14.2851 15.019 13.9641 15.0183 13.643C15.0176 13.2723 15.0178 12.9016 15.0186 12.5308C15.0192 12.212 15.0193 11.8932 15.0189 11.5744C15.0187 11.3842 15.0187 11.1941 15.0192 11.0039C15.0196 10.825 15.0193 10.6462 15.0185 10.4674C15.0183 10.4019 15.0183 10.3364 15.0186 10.271C15.0325 9.79883 15.0325 9.79883 14.8594 9.37497C14.5809 9.21841 14.3347 9.21451 14.02 9.21681C13.969 9.21662 13.9179 9.21644 13.8653 9.21624C13.6946 9.21579 13.5239 9.21635 13.3531 9.2169C13.2306 9.21678 13.1081 9.21661 12.9856 9.21638C12.6875 9.21593 12.3895 9.21624 12.0915 9.21681C11.7443 9.21745 11.3972 9.21737 11.0501 9.21728C10.4308 9.21713 9.81145 9.21767 9.19213 9.21859C8.59121 9.21948 7.99029 9.21981 7.38936 9.21955C6.73481 9.21927 6.08025 9.21928 5.4257 9.21981C5.35591 9.21987 5.28612 9.21992 5.21634 9.21998C5.16484 9.22002 5.16483 9.22002 5.11229 9.22006C4.87033 9.22025 4.62836 9.22023 4.3864 9.22014C4.06082 9.22003 3.73526 9.22043 3.40968 9.22117C3.29005 9.22137 3.17042 9.22141 3.05078 9.22128C2.88779 9.22113 2.72481 9.22155 2.56182 9.22213C2.51421 9.22195 2.4666 9.22177 2.41755 9.22159C2.13239 9.22338 1.93411 9.22468 1.72116 9.43245Z"/>
</mask>
<path d="M8.15295 -0.0406525C8.24711 -0.0425976 8.34126 -0.0446044 8.43542 -0.0466678C8.74328 -0.0530025 9.05115 -0.0572987 9.35905 -0.0611832C9.438 -0.0622017 9.438 -0.0622017 9.51854 -0.0632409C10.0162 -0.0695412 10.5139 -0.0749844 11.0117 -0.0785717C11.6449 -0.0831993 12.2778 -0.0918724 12.9108 -0.106126C13.3579 -0.115844 13.8048 -0.120783 14.252 -0.122322C14.5181 -0.123365 14.7839 -0.126393 15.05 -0.134615C16.854 -0.187838 16.854 -0.187838 17.4551 0.345294C17.6883 0.568914 17.8922 0.815351 18.0826 1.07599C18.274 1.33647 18.4902 1.57525 18.7207 1.80173C18.7562 1.8369 18.7917 1.87207 18.8284 1.9083C18.8644 1.94371 18.9004 1.97912 18.9375 2.0156C19.339 2.41038 19.339 2.41038 19.522 2.62351C19.7138 2.84677 19.9231 3.0514 20.1328 3.25779C20.3714 3.49259 20.603 3.72842 20.821 3.98243C20.9891 4.17114 21.1715 4.34619 21.3515 4.52341C21.5907 4.75874 21.8227 4.99512 22.0412 5.24972C22.2347 5.46682 22.4476 5.66616 22.656 5.86878C23.3327 6.53571 23.3327 6.53571 23.3497 6.86617C23.3498 6.91289 23.3498 6.95962 23.3499 7.00776C23.3501 7.06168 23.3503 7.1156 23.3504 7.17116C23.3504 7.23067 23.3504 7.29019 23.3503 7.3515C23.3504 7.41515 23.3506 7.47881 23.3507 7.54246C23.3511 7.71778 23.3512 7.89309 23.3512 8.06841C23.3513 8.25736 23.3517 8.44631 23.352 8.63526C23.3526 9.04873 23.3529 9.46221 23.3531 9.87568C23.3532 10.134 23.3534 10.3922 23.3537 10.6505C23.3542 11.3658 23.3547 12.0812 23.3549 12.7965C23.3549 12.8423 23.3549 12.8881 23.3549 12.9353C23.3549 12.9812 23.3549 13.0271 23.3549 13.0744C23.355 13.1674 23.355 13.2605 23.355 13.3535C23.355 13.3997 23.355 13.4458 23.355 13.4934C23.3552 14.2403 23.356 14.9871 23.3571 15.734C23.3582 16.5011 23.3588 17.2682 23.3589 18.0354C23.3589 18.4659 23.3592 18.8965 23.36 19.3271C23.3608 19.694 23.361 20.0608 23.3606 20.4277C23.3604 20.6147 23.3605 20.8017 23.3611 20.9887C23.3617 21.1604 23.3617 21.332 23.3611 21.5036C23.361 21.5942 23.3615 21.6848 23.3621 21.7755C23.3589 22.3465 23.3018 22.8964 22.9219 23.3437C22.8943 23.377 22.8668 23.4102 22.8384 23.4444C22.5763 23.7333 22.1799 23.9842 21.7797 24.006C21.7354 24.0061 21.6912 24.0062 21.6456 24.0063C21.5945 24.0065 21.5435 24.0067 21.4909 24.0069C21.4345 24.0069 21.3782 24.0069 21.3202 24.0069C21.2307 24.0071 21.2307 24.0071 21.1393 24.0074C20.9734 24.0079 20.8074 24.008 20.6414 24.0082C20.4626 24.0083 20.2837 24.0088 20.1048 24.0092C19.6726 24.0101 19.2403 24.0106 18.8081 24.011C18.6045 24.0112 18.4009 24.0115 18.1974 24.0117C17.5205 24.0125 16.8437 24.0132 16.1669 24.0135C15.9912 24.0136 15.8155 24.0137 15.6398 24.0138C15.5743 24.0138 15.5743 24.0138 15.5075 24.0139C14.8005 24.0143 14.0936 24.0155 13.3866 24.017C12.6606 24.0185 11.9347 24.0194 11.2087 24.0195C10.8012 24.0196 10.3937 24.02 9.98612 24.0212C9.63895 24.0223 9.29179 24.0226 8.94462 24.0222C8.76759 24.022 8.59057 24.022 8.41355 24.023C8.22129 24.0239 8.02906 24.0235 7.83679 24.0228C7.75356 24.0236 7.75356 24.0236 7.66864 24.0244C7.11878 24.0201 6.68173 23.8667 6.28123 23.4843C5.72205 22.8986 5.73951 22.2656 5.7473 21.5019C5.74765 21.4007 5.74791 21.2995 5.7481 21.1983C5.74881 20.9334 5.75065 20.6685 5.75273 20.4037C5.75466 20.1328 5.75551 19.8619 5.75645 19.5911C5.75846 19.0607 5.76165 18.5303 5.76561 18C5.71594 18.0003 5.66627 18.0006 5.61509 18.0009C5.14613 18.0038 4.67717 18.0059 4.20821 18.0073C3.96713 18.008 3.72606 18.009 3.48498 18.0106C3.25217 18.0121 3.01936 18.013 2.78655 18.0133C2.69789 18.0136 2.60923 18.0141 2.52058 18.0148C2.39604 18.0159 2.27153 18.016 2.14699 18.0159C2.09247 18.0167 2.09247 18.0167 2.03684 18.0175C1.60271 18.015 1.30749 17.8495 0.994063 17.5534C0.705619 17.2302 0.650602 16.8531 0.649966 16.4311C0.649766 16.371 0.649566 16.3108 0.64936 16.2489C0.649376 16.1829 0.649398 16.1168 0.649424 16.0508C0.649284 15.9807 0.649124 15.9107 0.648947 15.8407C0.648534 15.651 0.648423 15.4612 0.648393 15.2715C0.64836 15.1528 0.648259 15.0342 0.648135 14.9155C0.647702 14.501 0.64751 14.0866 0.647547 13.6722C0.647575 13.2865 0.647081 12.9008 0.646341 12.5152C0.645727 12.1835 0.645476 11.8519 0.645506 11.5202C0.645518 11.3224 0.645386 11.1245 0.644889 10.9267C0.644433 10.7405 0.644432 10.5543 0.644772 10.3681C0.644821 10.3001 0.644712 10.232 0.644427 10.1639C0.642273 9.61249 0.660319 9.1535 1.03123 8.71872C1.36355 8.40932 1.69286 8.27467 2.14167 8.28088C2.18103 8.28086 2.2204 8.28084 2.26096 8.28082C2.39006 8.28092 2.51914 8.28201 2.64824 8.28312C2.73815 8.28338 2.82806 8.28358 2.91798 8.28372C3.15386 8.28425 3.38974 8.28563 3.62562 8.28719C3.86663 8.28864 4.10764 8.28927 4.34865 8.28998C4.82097 8.29149 5.29329 8.29389 5.76561 8.29685C5.76544 8.26205 5.76526 8.22726 5.76508 8.19141C5.76094 7.34315 5.75784 6.49489 5.75589 5.64662C5.75493 5.2364 5.75361 4.82618 5.75146 4.41596C5.74959 4.05824 5.74838 3.70053 5.74797 3.34281C5.74772 3.15355 5.74715 2.9643 5.74578 2.77505C5.7445 2.59656 5.74412 2.4181 5.7444 2.23961C5.74435 2.17444 5.74398 2.10927 5.74326 2.0441C5.73684 1.43647 5.85455 0.962563 6.28123 0.515599C6.83193 -0.0101128 7.432 -0.0306295 8.15295 -0.0406525ZM6.94334 1.25681C6.90437 1.30222 6.90437 1.30222 6.86461 1.34855C6.72728 1.56047 6.69139 1.76815 6.69183 2.01731C6.69171 2.07291 6.69158 2.12852 6.69144 2.18581C6.69178 2.24616 6.69212 2.30651 6.69247 2.3687C6.69249 2.43339 6.69248 2.49809 6.69242 2.56278C6.6924 2.73787 6.69295 2.91294 6.6936 3.08803C6.69419 3.2712 6.69424 3.45438 6.69436 3.63755C6.69465 3.98418 6.69542 4.3308 6.69636 4.67743C6.69741 5.07215 6.69792 5.46687 6.69839 5.8616C6.69937 6.67335 6.70102 7.4851 6.70311 8.29685C6.74471 8.29692 6.78631 8.29699 6.82918 8.29706C7.84251 8.2988 8.85583 8.30156 9.86915 8.30547C10.3592 8.30733 10.8492 8.30885 11.3393 8.30955C11.7665 8.31016 12.1937 8.31143 12.621 8.31347C12.8471 8.31453 13.0732 8.31527 13.2993 8.31522C13.5124 8.31518 13.7254 8.31603 13.9385 8.31753C14.0165 8.31793 14.0944 8.31801 14.1724 8.31775C14.9751 8.31539 14.9751 8.31539 15.3281 8.53122C15.3534 8.55651 15.3786 8.58179 15.4046 8.60785C15.4647 8.68289 15.4647 8.68289 15.5625 8.67185C15.576 8.69886 15.5894 8.72587 15.6033 8.7537C15.6369 8.82081 15.6707 8.88784 15.7048 8.95475C15.7206 8.98611 15.7365 9.01747 15.7529 9.04978C15.7689 9.08126 15.7849 9.11274 15.8014 9.14518C15.8884 9.32861 15.8968 9.47424 15.8975 9.67524C15.8977 9.70585 15.8979 9.73645 15.898 9.76799C15.8985 9.87075 15.8987 9.97351 15.8989 10.0763C15.8992 10.1499 15.8995 10.2235 15.8998 10.2971C15.9008 10.5391 15.9013 10.7811 15.9018 11.0231C15.902 11.1065 15.9022 11.1899 15.9024 11.2733C15.9033 11.6651 15.9039 12.057 15.9043 12.4489C15.9048 12.9008 15.906 13.3527 15.9079 13.8045C15.9093 14.154 15.91 14.5036 15.9102 14.8531C15.9103 15.0617 15.9107 15.2703 15.9119 15.4789C15.913 15.6754 15.9132 15.8719 15.9127 16.0684C15.9127 16.1402 15.9129 16.2121 15.9136 16.2839C15.9175 16.7502 15.8667 17.1138 15.6269 17.5195C15.32 17.8103 14.9975 17.9584 14.5779 17.9605C14.5443 17.9607 14.5107 17.961 14.476 17.9612C14.3631 17.9619 14.2502 17.9623 14.1372 17.9627C14.0564 17.9632 13.9756 17.9636 13.8947 17.9641C13.675 17.9654 13.4553 17.9664 13.2355 17.9673C13.006 17.9683 12.7765 17.9696 12.5469 17.9709C12.1121 17.9732 11.6774 17.9753 11.2426 17.9774C10.7476 17.9797 10.2527 17.9822 9.75779 17.9848C8.73956 17.9902 7.72134 17.9952 6.70311 18C6.69985 18.5497 6.69735 19.0994 6.69582 19.649C6.69509 19.9043 6.6941 20.1596 6.6925 20.4148C6.69097 20.6613 6.69013 20.9078 6.68977 21.1543C6.68951 21.2482 6.689 21.3421 6.68824 21.436C6.68721 21.5678 6.68708 21.6996 6.68714 21.8315C6.68664 21.87 6.68613 21.9085 6.68561 21.9482C6.68719 22.2448 6.73641 22.5093 6.92961 22.7457C6.97556 22.7836 6.97556 22.7836 7.02244 22.8222C7.05272 22.8482 7.08299 22.8742 7.11418 22.901C7.41301 23.0946 7.72276 23.076 8.0663 23.0753C8.12382 23.0756 8.18135 23.0758 8.24062 23.0761C8.39995 23.0766 8.55927 23.0768 8.7186 23.0768C8.89058 23.0769 9.06256 23.0775 9.23453 23.078C9.61041 23.0791 9.98628 23.0795 10.3622 23.0797C10.597 23.0799 10.8317 23.0802 11.0665 23.0805C11.7169 23.0814 12.3673 23.0822 13.0177 23.0823C13.0593 23.0823 13.1009 23.0823 13.1438 23.0823C13.2281 23.0824 13.3124 23.0824 13.3968 23.0824C13.4386 23.0824 13.4805 23.0824 13.5236 23.0824C13.5865 23.0824 13.5865 23.0824 13.6506 23.0824C14.3297 23.0826 15.0088 23.0839 15.688 23.0856C16.3856 23.0874 17.0832 23.0883 17.7808 23.0883C18.1723 23.0884 18.5639 23.0888 18.9554 23.0901C19.2888 23.0913 19.6222 23.0916 19.9556 23.0909C20.1256 23.0906 20.2955 23.0906 20.4655 23.0917C20.6501 23.0928 20.8347 23.0921 21.0192 23.0913C21.0726 23.0919 21.1259 23.0925 21.1809 23.0932C21.5248 23.0896 21.7927 23.0272 22.0781 22.8281C22.2849 22.611 22.3652 22.4048 22.3651 22.1085C22.3652 22.0562 22.3653 22.0038 22.3654 21.9498C22.3652 21.8632 22.3652 21.8632 22.365 21.7748C22.365 21.7136 22.3651 21.6524 22.3651 21.5894C22.3652 21.4192 22.365 21.249 22.3648 21.0788C22.3646 20.8955 22.3647 20.7121 22.3647 20.5287C22.3647 20.2109 22.3646 19.8931 22.3643 19.5752C22.3639 19.1157 22.3638 18.6562 22.3638 18.1966C22.3637 17.4511 22.3633 16.7056 22.3629 15.9601C22.3625 15.2358 22.3621 14.5115 22.3619 13.7872C22.3619 13.7425 22.3619 13.6979 22.3619 13.6519C22.3618 13.428 22.3618 13.2042 22.3617 12.9803C22.3612 11.1223 22.3604 9.26425 22.3594 7.40622C22.3282 7.40611 22.297 7.406 22.2648 7.40589C21.5059 7.40311 20.7469 7.39957 19.9879 7.39517C19.6209 7.39307 19.2539 7.39122 18.8868 7.38999C18.5669 7.38891 18.247 7.38734 17.9271 7.38519C17.7577 7.38407 17.5883 7.38319 17.4189 7.3829C17.2298 7.38256 17.0407 7.38114 16.8516 7.37962C16.7955 7.37968 16.7393 7.37975 16.6815 7.37982C16.6299 7.37923 16.5783 7.37865 16.5251 7.37804C16.4804 7.37782 16.4357 7.37761 16.3896 7.37739C16.2414 7.35582 16.1526 7.3051 16.0312 7.21872C15.9303 7.07465 15.9254 6.95055 15.9244 6.77733C15.9239 6.7258 15.9234 6.67427 15.9228 6.62118C15.9227 6.56487 15.9226 6.50856 15.9225 6.45055C15.9218 6.36136 15.9218 6.36136 15.9211 6.27036C15.9198 6.10748 15.9191 5.94459 15.9185 5.78171C15.9178 5.61142 15.9165 5.44113 15.9153 5.27084C15.9131 4.94845 15.9114 4.62606 15.9099 4.30367C15.9081 3.93661 15.9057 3.56955 15.9034 3.20248C15.8985 2.44748 15.8944 1.69248 15.8906 0.937474C14.8031 0.934188 13.7156 0.931709 12.628 0.930188C12.1231 0.929463 11.6181 0.928475 11.1131 0.926865C10.673 0.925463 10.2328 0.924556 9.79262 0.924243C9.55959 0.92406 9.32657 0.92363 9.09354 0.922606C8.87408 0.921649 8.65463 0.921357 8.43517 0.921568C8.35475 0.92153 8.27433 0.921251 8.19391 0.920711C8.0838 0.920007 7.97373 0.920181 7.86362 0.920563C7.80209 0.920434 7.74056 0.920304 7.67717 0.92017C7.38946 0.948267 7.13295 1.02683 6.94334 1.25681ZM16.875 1.35935C16.875 3.02997 16.875 4.7006 16.875 6.42185C18.4837 6.42185 20.0925 6.42185 21.75 6.42185C21.5682 6.17951 21.4171 5.98389 21.2067 5.77732C21.1829 5.75377 21.1591 5.73022 21.1346 5.70595C21.0597 5.63185 20.9845 5.55808 20.9092 5.48435C20.8099 5.38686 20.7109 5.28921 20.612 5.19138C20.5762 5.156 20.5762 5.156 20.5397 5.11991C20.3844 4.96519 20.2388 4.80515 20.0966 4.6384C19.9305 4.45062 19.7489 4.27734 19.5703 4.10154C19.3317 3.86673 19.1001 3.6309 18.8821 3.3769C18.714 3.18818 18.5316 3.01314 18.3515 2.83591C18.1111 2.59925 17.8771 2.36161 17.6573 2.1056C17.5222 1.95197 17.3775 1.80818 17.2324 1.66404C17.203 1.63443 17.1736 1.60482 17.1432 1.57431C17.1153 1.5464 17.0873 1.51848 17.0585 1.48972C17.0333 1.46461 17.0081 1.43951 16.9822 1.41364C16.9296 1.35412 16.9296 1.35412 16.875 1.35935ZM1.72116 9.43245C1.62432 9.58876 1.61725 9.67872 1.61743 9.86167C1.61704 9.92207 1.61664 9.98246 1.61624 10.0447C1.61675 10.1113 1.61729 10.1779 1.61783 10.2445C1.61773 10.3149 1.61755 10.3852 1.6173 10.4556C1.61684 10.6465 1.61756 10.8374 1.61851 11.0283C1.61933 11.2281 1.61917 11.4279 1.61913 11.6277C1.61922 11.9631 1.62003 12.2986 1.62131 12.634C1.62279 13.0219 1.62328 13.4098 1.62321 13.7976C1.62316 14.1708 1.62364 14.5439 1.62441 14.9171C1.62474 15.0759 1.62492 15.2347 1.62497 15.3935C1.62506 15.5804 1.62563 15.7674 1.62657 15.9543C1.62685 16.023 1.62696 16.0916 1.62691 16.1602C1.62686 16.2539 1.62745 16.3475 1.62807 16.4411C1.62823 16.4935 1.62839 16.5459 1.62855 16.5999C1.64103 16.739 1.65039 16.8108 1.73436 16.9218C1.98327 17.0975 2.23195 17.0822 2.52446 17.0803C2.60147 17.0807 2.60147 17.0807 2.68004 17.081C2.85212 17.0816 3.02419 17.0811 3.19627 17.0807C3.31962 17.0809 3.44298 17.0811 3.56633 17.0814C3.86662 17.082 4.1669 17.0819 4.46718 17.0815C4.71125 17.0812 4.95531 17.0811 5.19938 17.0813C5.23412 17.0813 5.26887 17.0813 5.30467 17.0814C5.37526 17.0814 5.44584 17.0814 5.51643 17.0815C6.17822 17.0819 6.84001 17.0814 7.5018 17.0807C8.06955 17.0801 8.63731 17.0802 9.20506 17.0808C9.86449 17.0816 10.5239 17.0819 11.1834 17.0814C11.2537 17.0814 11.324 17.0813 11.3943 17.0813C11.4462 17.0813 11.4462 17.0813 11.4992 17.0812C11.7429 17.0811 11.9867 17.0813 12.2304 17.0816C12.5586 17.0821 12.8867 17.0818 13.2148 17.081C13.3353 17.0808 13.4558 17.0808 13.5763 17.0811C13.7407 17.0815 13.9049 17.081 14.0693 17.0803C14.1411 17.0808 14.1411 17.0808 14.2143 17.0813C14.4635 17.0792 14.6462 17.0663 14.8594 16.9218C15.0572 16.6223 15.0198 16.2764 15.0182 15.9291C15.0184 15.8617 15.0186 15.7943 15.0189 15.7269C15.0196 15.5446 15.0193 15.3622 15.0189 15.1798C15.0185 14.9886 15.0188 14.7974 15.0191 14.6062C15.0193 14.2851 15.019 13.9641 15.0183 13.643C15.0176 13.2723 15.0178 12.9016 15.0186 12.5308C15.0192 12.212 15.0193 11.8932 15.0189 11.5744C15.0187 11.3842 15.0187 11.1941 15.0192 11.0039C15.0196 10.825 15.0193 10.6462 15.0185 10.4674C15.0183 10.4019 15.0183 10.3364 15.0186 10.271C15.0325 9.79883 15.0325 9.79883 14.8594 9.37497C14.5809 9.21841 14.3347 9.21451 14.02 9.21681C13.969 9.21662 13.9179 9.21644 13.8653 9.21624C13.6946 9.21579 13.5239 9.21635 13.3531 9.2169C13.2306 9.21678 13.1081 9.21661 12.9856 9.21638C12.6875 9.21593 12.3895 9.21624 12.0915 9.21681C11.7443 9.21745 11.3972 9.21737 11.0501 9.21728C10.4308 9.21713 9.81145 9.21767 9.19213 9.21859C8.59121 9.21948 7.99029 9.21981 7.38936 9.21955C6.73481 9.21927 6.08025 9.21928 5.4257 9.21981C5.35591 9.21987 5.28612 9.21992 5.21634 9.21998C5.16484 9.22002 5.16483 9.22002 5.11229 9.22006C4.87033 9.22025 4.62836 9.22023 4.3864 9.22014C4.06082 9.22003 3.73526 9.22043 3.40968 9.22117C3.29005 9.22137 3.17042 9.22141 3.05078 9.22128C2.88779 9.22113 2.72481 9.22155 2.56182 9.22213C2.51421 9.22195 2.4666 9.22177 2.41755 9.22159C2.13239 9.22338 1.93411 9.22468 1.72116 9.43245Z" fill="#2C2C2C"/>
<path d="M8.15295 -0.0406525C8.24711 -0.0425976 8.34126 -0.0446044 8.43542 -0.0466678C8.74328 -0.0530025 9.05115 -0.0572987 9.35905 -0.0611832C9.438 -0.0622017 9.438 -0.0622017 9.51854 -0.0632409C10.0162 -0.0695412 10.5139 -0.0749844 11.0117 -0.0785717C11.6449 -0.0831993 12.2778 -0.0918724 12.9108 -0.106126C13.3579 -0.115844 13.8048 -0.120783 14.252 -0.122322C14.5181 -0.123365 14.7839 -0.126393 15.05 -0.134615C16.854 -0.187838 16.854 -0.187838 17.4551 0.345294C17.6883 0.568914 17.8922 0.815351 18.0826 1.07599C18.274 1.33647 18.4902 1.57525 18.7207 1.80173C18.7562 1.8369 18.7917 1.87207 18.8284 1.9083C18.8644 1.94371 18.9004 1.97912 18.9375 2.0156C19.339 2.41038 19.339 2.41038 19.522 2.62351C19.7138 2.84677 19.9231 3.0514 20.1328 3.25779C20.3714 3.49259 20.603 3.72842 20.821 3.98243C20.9891 4.17114 21.1715 4.34619 21.3515 4.52341C21.5907 4.75874 21.8227 4.99512 22.0412 5.24972C22.2347 5.46682 22.4476 5.66616 22.656 5.86878C23.3327 6.53571 23.3327 6.53571 23.3497 6.86617C23.3498 6.91289 23.3498 6.95962 23.3499 7.00776C23.3501 7.06168 23.3503 7.1156 23.3504 7.17116C23.3504 7.23067 23.3504 7.29019 23.3503 7.3515C23.3504 7.41515 23.3506 7.47881 23.3507 7.54246C23.3511 7.71778 23.3512 7.89309 23.3512 8.06841C23.3513 8.25736 23.3517 8.44631 23.352 8.63526C23.3526 9.04873 23.3529 9.46221 23.3531 9.87568C23.3532 10.134 23.3534 10.3922 23.3537 10.6505C23.3542 11.3658 23.3547 12.0812 23.3549 12.7965C23.3549 12.8423 23.3549 12.8881 23.3549 12.9353C23.3549 12.9812 23.3549 13.0271 23.3549 13.0744C23.355 13.1674 23.355 13.2605 23.355 13.3535C23.355 13.3997 23.355 13.4458 23.355 13.4934C23.3552 14.2403 23.356 14.9871 23.3571 15.734C23.3582 16.5011 23.3588 17.2682 23.3589 18.0354C23.3589 18.4659 23.3592 18.8965 23.36 19.3271C23.3608 19.694 23.361 20.0608 23.3606 20.4277C23.3604 20.6147 23.3605 20.8017 23.3611 20.9887C23.3617 21.1604 23.3617 21.332 23.3611 21.5036C23.361 21.5942 23.3615 21.6848 23.3621 21.7755C23.3589 22.3465 23.3018 22.8964 22.9219 23.3437C22.8943 23.377 22.8668 23.4102 22.8384 23.4444C22.5763 23.7333 22.1799 23.9842 21.7797 24.006C21.7354 24.0061 21.6912 24.0062 21.6456 24.0063C21.5945 24.0065 21.5435 24.0067 21.4909 24.0069C21.4345 24.0069 21.3782 24.0069 21.3202 24.0069C21.2307 24.0071 21.2307 24.0071 21.1393 24.0074C20.9734 24.0079 20.8074 24.008 20.6414 24.0082C20.4626 24.0083 20.2837 24.0088 20.1048 24.0092C19.6726 24.0101 19.2403 24.0106 18.8081 24.011C18.6045 24.0112 18.4009 24.0115 18.1974 24.0117C17.5205 24.0125 16.8437 24.0132 16.1669 24.0135C15.9912 24.0136 15.8155 24.0137 15.6398 24.0138C15.5743 24.0138 15.5743 24.0138 15.5075 24.0139C14.8005 24.0143 14.0936 24.0155 13.3866 24.017C12.6606 24.0185 11.9347 24.0194 11.2087 24.0195C10.8012 24.0196 10.3937 24.02 9.98612 24.0212C9.63895 24.0223 9.29179 24.0226 8.94462 24.0222C8.76759 24.022 8.59057 24.022 8.41355 24.023C8.22129 24.0239 8.02906 24.0235 7.83679 24.0228C7.75356 24.0236 7.75356 24.0236 7.66864 24.0244C7.11878 24.0201 6.68173 23.8667 6.28123 23.4843C5.72205 22.8986 5.73951 22.2656 5.7473 21.5019C5.74765 21.4007 5.74791 21.2995 5.7481 21.1983C5.74881 20.9334 5.75065 20.6685 5.75273 20.4037C5.75466 20.1328 5.75551 19.8619 5.75645 19.5911C5.75846 19.0607 5.76165 18.5303 5.76561 18C5.71594 18.0003 5.66627 18.0006 5.61509 18.0009C5.14613 18.0038 4.67717 18.0059 4.20821 18.0073C3.96713 18.008 3.72606 18.009 3.48498 18.0106C3.25217 18.0121 3.01936 18.013 2.78655 18.0133C2.69789 18.0136 2.60923 18.0141 2.52058 18.0148C2.39604 18.0159 2.27153 18.016 2.14699 18.0159C2.09247 18.0167 2.09247 18.0167 2.03684 18.0175C1.60271 18.015 1.30749 17.8495 0.994063 17.5534C0.705619 17.2302 0.650602 16.8531 0.649966 16.4311C0.649766 16.371 0.649566 16.3108 0.64936 16.2489C0.649376 16.1829 0.649398 16.1168 0.649424 16.0508C0.649284 15.9807 0.649124 15.9107 0.648947 15.8407C0.648534 15.651 0.648423 15.4612 0.648393 15.2715C0.64836 15.1528 0.648259 15.0342 0.648135 14.9155C0.647702 14.501 0.64751 14.0866 0.647547 13.6722C0.647575 13.2865 0.647081 12.9008 0.646341 12.5152C0.645727 12.1835 0.645476 11.8519 0.645506 11.5202C0.645518 11.3224 0.645386 11.1245 0.644889 10.9267C0.644433 10.7405 0.644432 10.5543 0.644772 10.3681C0.644821 10.3001 0.644712 10.232 0.644427 10.1639C0.642273 9.61249 0.660319 9.1535 1.03123 8.71872C1.36355 8.40932 1.69286 8.27467 2.14167 8.28088C2.18103 8.28086 2.2204 8.28084 2.26096 8.28082C2.39006 8.28092 2.51914 8.28201 2.64824 8.28312C2.73815 8.28338 2.82806 8.28358 2.91798 8.28372C3.15386 8.28425 3.38974 8.28563 3.62562 8.28719C3.86663 8.28864 4.10764 8.28927 4.34865 8.28998C4.82097 8.29149 5.29329 8.29389 5.76561 8.29685C5.76544 8.26205 5.76526 8.22726 5.76508 8.19141C5.76094 7.34315 5.75784 6.49489 5.75589 5.64662C5.75493 5.2364 5.75361 4.82618 5.75146 4.41596C5.74959 4.05824 5.74838 3.70053 5.74797 3.34281C5.74772 3.15355 5.74715 2.9643 5.74578 2.77505C5.7445 2.59656 5.74412 2.4181 5.7444 2.23961C5.74435 2.17444 5.74398 2.10927 5.74326 2.0441C5.73684 1.43647 5.85455 0.962563 6.28123 0.515599C6.83193 -0.0101128 7.432 -0.0306295 8.15295 -0.0406525ZM6.94334 1.25681C6.90437 1.30222 6.90437 1.30222 6.86461 1.34855C6.72728 1.56047 6.69139 1.76815 6.69183 2.01731C6.69171 2.07291 6.69158 2.12852 6.69144 2.18581C6.69178 2.24616 6.69212 2.30651 6.69247 2.3687C6.69249 2.43339 6.69248 2.49809 6.69242 2.56278C6.6924 2.73787 6.69295 2.91294 6.6936 3.08803C6.69419 3.2712 6.69424 3.45438 6.69436 3.63755C6.69465 3.98418 6.69542 4.3308 6.69636 4.67743C6.69741 5.07215 6.69792 5.46687 6.69839 5.8616C6.69937 6.67335 6.70102 7.4851 6.70311 8.29685C6.74471 8.29692 6.78631 8.29699 6.82918 8.29706C7.84251 8.2988 8.85583 8.30156 9.86915 8.30547C10.3592 8.30733 10.8492 8.30885 11.3393 8.30955C11.7665 8.31016 12.1937 8.31143 12.621 8.31347C12.8471 8.31453 13.0732 8.31527 13.2993 8.31522C13.5124 8.31518 13.7254 8.31603 13.9385 8.31753C14.0165 8.31793 14.0944 8.31801 14.1724 8.31775C14.9751 8.31539 14.9751 8.31539 15.3281 8.53122C15.3534 8.55651 15.3786 8.58179 15.4046 8.60785C15.4647 8.68289 15.4647 8.68289 15.5625 8.67185C15.576 8.69886 15.5894 8.72587 15.6033 8.7537C15.6369 8.82081 15.6707 8.88784 15.7048 8.95475C15.7206 8.98611 15.7365 9.01747 15.7529 9.04978C15.7689 9.08126 15.7849 9.11274 15.8014 9.14518C15.8884 9.32861 15.8968 9.47424 15.8975 9.67524C15.8977 9.70585 15.8979 9.73645 15.898 9.76799C15.8985 9.87075 15.8987 9.97351 15.8989 10.0763C15.8992 10.1499 15.8995 10.2235 15.8998 10.2971C15.9008 10.5391 15.9013 10.7811 15.9018 11.0231C15.902 11.1065 15.9022 11.1899 15.9024 11.2733C15.9033 11.6651 15.9039 12.057 15.9043 12.4489C15.9048 12.9008 15.906 13.3527 15.9079 13.8045C15.9093 14.154 15.91 14.5036 15.9102 14.8531C15.9103 15.0617 15.9107 15.2703 15.9119 15.4789C15.913 15.6754 15.9132 15.8719 15.9127 16.0684C15.9127 16.1402 15.9129 16.2121 15.9136 16.2839C15.9175 16.7502 15.8667 17.1138 15.6269 17.5195C15.32 17.8103 14.9975 17.9584 14.5779 17.9605C14.5443 17.9607 14.5107 17.961 14.476 17.9612C14.3631 17.9619 14.2502 17.9623 14.1372 17.9627C14.0564 17.9632 13.9756 17.9636 13.8947 17.9641C13.675 17.9654 13.4553 17.9664 13.2355 17.9673C13.006 17.9683 12.7765 17.9696 12.5469 17.9709C12.1121 17.9732 11.6774 17.9753 11.2426 17.9774C10.7476 17.9797 10.2527 17.9822 9.75779 17.9848C8.73956 17.9902 7.72134 17.9952 6.70311 18C6.69985 18.5497 6.69735 19.0994 6.69582 19.649C6.69509 19.9043 6.6941 20.1596 6.6925 20.4148C6.69097 20.6613 6.69013 20.9078 6.68977 21.1543C6.68951 21.2482 6.689 21.3421 6.68824 21.436C6.68721 21.5678 6.68708 21.6996 6.68714 21.8315C6.68664 21.87 6.68613 21.9085 6.68561 21.9482C6.68719 22.2448 6.73641 22.5093 6.92961 22.7457C6.97556 22.7836 6.97556 22.7836 7.02244 22.8222C7.05272 22.8482 7.08299 22.8742 7.11418 22.901C7.41301 23.0946 7.72276 23.076 8.0663 23.0753C8.12382 23.0756 8.18135 23.0758 8.24062 23.0761C8.39995 23.0766 8.55927 23.0768 8.7186 23.0768C8.89058 23.0769 9.06256 23.0775 9.23453 23.078C9.61041 23.0791 9.98628 23.0795 10.3622 23.0797C10.597 23.0799 10.8317 23.0802 11.0665 23.0805C11.7169 23.0814 12.3673 23.0822 13.0177 23.0823C13.0593 23.0823 13.1009 23.0823 13.1438 23.0823C13.2281 23.0824 13.3124 23.0824 13.3968 23.0824C13.4386 23.0824 13.4805 23.0824 13.5236 23.0824C13.5865 23.0824 13.5865 23.0824 13.6506 23.0824C14.3297 23.0826 15.0088 23.0839 15.688 23.0856C16.3856 23.0874 17.0832 23.0883 17.7808 23.0883C18.1723 23.0884 18.5639 23.0888 18.9554 23.0901C19.2888 23.0913 19.6222 23.0916 19.9556 23.0909C20.1256 23.0906 20.2955 23.0906 20.4655 23.0917C20.6501 23.0928 20.8347 23.0921 21.0192 23.0913C21.0726 23.0919 21.1259 23.0925 21.1809 23.0932C21.5248 23.0896 21.7927 23.0272 22.0781 22.8281C22.2849 22.611 22.3652 22.4048 22.3651 22.1085C22.3652 22.0562 22.3653 22.0038 22.3654 21.9498C22.3652 21.8632 22.3652 21.8632 22.365 21.7748C22.365 21.7136 22.3651 21.6524 22.3651 21.5894C22.3652 21.4192 22.365 21.249 22.3648 21.0788C22.3646 20.8955 22.3647 20.7121 22.3647 20.5287C22.3647 20.2109 22.3646 19.8931 22.3643 19.5752C22.3639 19.1157 22.3638 18.6562 22.3638 18.1966C22.3637 17.4511 22.3633 16.7056 22.3629 15.9601C22.3625 15.2358 22.3621 14.5115 22.3619 13.7872C22.3619 13.7425 22.3619 13.6979 22.3619 13.6519C22.3618 13.428 22.3618 13.2042 22.3617 12.9803C22.3612 11.1223 22.3604 9.26425 22.3594 7.40622C22.3282 7.40611 22.297 7.406 22.2648 7.40589C21.5059 7.40311 20.7469 7.39957 19.9879 7.39517C19.6209 7.39307 19.2539 7.39122 18.8868 7.38999C18.5669 7.38891 18.247 7.38734 17.9271 7.38519C17.7577 7.38407 17.5883 7.38319 17.4189 7.3829C17.2298 7.38256 17.0407 7.38114 16.8516 7.37962C16.7955 7.37968 16.7393 7.37975 16.6815 7.37982C16.6299 7.37923 16.5783 7.37865 16.5251 7.37804C16.4804 7.37782 16.4357 7.37761 16.3896 7.37739C16.2414 7.35582 16.1526 7.3051 16.0312 7.21872C15.9303 7.07465 15.9254 6.95055 15.9244 6.77733C15.9239 6.7258 15.9234 6.67427 15.9228 6.62118C15.9227 6.56487 15.9226 6.50856 15.9225 6.45055C15.9218 6.36136 15.9218 6.36136 15.9211 6.27036C15.9198 6.10748 15.9191 5.94459 15.9185 5.78171C15.9178 5.61142 15.9165 5.44113 15.9153 5.27084C15.9131 4.94845 15.9114 4.62606 15.9099 4.30367C15.9081 3.93661 15.9057 3.56955 15.9034 3.20248C15.8985 2.44748 15.8944 1.69248 15.8906 0.937474C14.8031 0.934188 13.7156 0.931709 12.628 0.930188C12.1231 0.929463 11.6181 0.928475 11.1131 0.926865C10.673 0.925463 10.2328 0.924556 9.79262 0.924243C9.55959 0.92406 9.32657 0.92363 9.09354 0.922606C8.87408 0.921649 8.65463 0.921357 8.43517 0.921568C8.35475 0.92153 8.27433 0.921251 8.19391 0.920711C8.0838 0.920007 7.97373 0.920181 7.86362 0.920563C7.80209 0.920434 7.74056 0.920304 7.67717 0.92017C7.38946 0.948267 7.13295 1.02683 6.94334 1.25681ZM16.875 1.35935C16.875 3.02997 16.875 4.7006 16.875 6.42185C18.4837 6.42185 20.0925 6.42185 21.75 6.42185C21.5682 6.17951 21.4171 5.98389 21.2067 5.77732C21.1829 5.75377 21.1591 5.73022 21.1346 5.70595C21.0597 5.63185 20.9845 5.55808 20.9092 5.48435C20.8099 5.38686 20.7109 5.28921 20.612 5.19138C20.5762 5.156 20.5762 5.156 20.5397 5.11991C20.3844 4.96519 20.2388 4.80515 20.0966 4.6384C19.9305 4.45062 19.7489 4.27734 19.5703 4.10154C19.3317 3.86673 19.1001 3.6309 18.8821 3.3769C18.714 3.18818 18.5316 3.01314 18.3515 2.83591C18.1111 2.59925 17.8771 2.36161 17.6573 2.1056C17.5222 1.95197 17.3775 1.80818 17.2324 1.66404C17.203 1.63443 17.1736 1.60482 17.1432 1.57431C17.1153 1.5464 17.0873 1.51848 17.0585 1.48972C17.0333 1.46461 17.0081 1.43951 16.9822 1.41364C16.9296 1.35412 16.9296 1.35412 16.875 1.35935ZM1.72116 9.43245C1.62432 9.58876 1.61725 9.67872 1.61743 9.86167C1.61704 9.92207 1.61664 9.98246 1.61624 10.0447C1.61675 10.1113 1.61729 10.1779 1.61783 10.2445C1.61773 10.3149 1.61755 10.3852 1.6173 10.4556C1.61684 10.6465 1.61756 10.8374 1.61851 11.0283C1.61933 11.2281 1.61917 11.4279 1.61913 11.6277C1.61922 11.9631 1.62003 12.2986 1.62131 12.634C1.62279 13.0219 1.62328 13.4098 1.62321 13.7976C1.62316 14.1708 1.62364 14.5439 1.62441 14.9171C1.62474 15.0759 1.62492 15.2347 1.62497 15.3935C1.62506 15.5804 1.62563 15.7674 1.62657 15.9543C1.62685 16.023 1.62696 16.0916 1.62691 16.1602C1.62686 16.2539 1.62745 16.3475 1.62807 16.4411C1.62823 16.4935 1.62839 16.5459 1.62855 16.5999C1.64103 16.739 1.65039 16.8108 1.73436 16.9218C1.98327 17.0975 2.23195 17.0822 2.52446 17.0803C2.60147 17.0807 2.60147 17.0807 2.68004 17.081C2.85212 17.0816 3.02419 17.0811 3.19627 17.0807C3.31962 17.0809 3.44298 17.0811 3.56633 17.0814C3.86662 17.082 4.1669 17.0819 4.46718 17.0815C4.71125 17.0812 4.95531 17.0811 5.19938 17.0813C5.23412 17.0813 5.26887 17.0813 5.30467 17.0814C5.37526 17.0814 5.44584 17.0814 5.51643 17.0815C6.17822 17.0819 6.84001 17.0814 7.5018 17.0807C8.06955 17.0801 8.63731 17.0802 9.20506 17.0808C9.86449 17.0816 10.5239 17.0819 11.1834 17.0814C11.2537 17.0814 11.324 17.0813 11.3943 17.0813C11.4462 17.0813 11.4462 17.0813 11.4992 17.0812C11.7429 17.0811 11.9867 17.0813 12.2304 17.0816C12.5586 17.0821 12.8867 17.0818 13.2148 17.081C13.3353 17.0808 13.4558 17.0808 13.5763 17.0811C13.7407 17.0815 13.9049 17.081 14.0693 17.0803C14.1411 17.0808 14.1411 17.0808 14.2143 17.0813C14.4635 17.0792 14.6462 17.0663 14.8594 16.9218C15.0572 16.6223 15.0198 16.2764 15.0182 15.9291C15.0184 15.8617 15.0186 15.7943 15.0189 15.7269C15.0196 15.5446 15.0193 15.3622 15.0189 15.1798C15.0185 14.9886 15.0188 14.7974 15.0191 14.6062C15.0193 14.2851 15.019 13.9641 15.0183 13.643C15.0176 13.2723 15.0178 12.9016 15.0186 12.5308C15.0192 12.212 15.0193 11.8932 15.0189 11.5744C15.0187 11.3842 15.0187 11.1941 15.0192 11.0039C15.0196 10.825 15.0193 10.6462 15.0185 10.4674C15.0183 10.4019 15.0183 10.3364 15.0186 10.271C15.0325 9.79883 15.0325 9.79883 14.8594 9.37497C14.5809 9.21841 14.3347 9.21451 14.02 9.21681C13.969 9.21662 13.9179 9.21644 13.8653 9.21624C13.6946 9.21579 13.5239 9.21635 13.3531 9.2169C13.2306 9.21678 13.1081 9.21661 12.9856 9.21638C12.6875 9.21593 12.3895 9.21624 12.0915 9.21681C11.7443 9.21745 11.3972 9.21737 11.0501 9.21728C10.4308 9.21713 9.81145 9.21767 9.19213 9.21859C8.59121 9.21948 7.99029 9.21981 7.38936 9.21955C6.73481 9.21927 6.08025 9.21928 5.4257 9.21981C5.35591 9.21987 5.28612 9.21992 5.21634 9.21998C5.16484 9.22002 5.16483 9.22002 5.11229 9.22006C4.87033 9.22025 4.62836 9.22023 4.3864 9.22014C4.06082 9.22003 3.73526 9.22043 3.40968 9.22117C3.29005 9.22137 3.17042 9.22141 3.05078 9.22128C2.88779 9.22113 2.72481 9.22155 2.56182 9.22213C2.51421 9.22195 2.4666 9.22177 2.41755 9.22159C2.13239 9.22338 1.93411 9.22468 1.72116 9.43245Z" stroke="#2C2C2C" mask="url(#path-1-outside-1_4034_12777)"/>
<path d="M7.07812 11.25C7.40104 11.2471 7.72395 11.2442 8.05664 11.2413C8.1576 11.24 8.25857 11.2387 8.36259 11.2374C8.44408 11.237 8.52557 11.2366 8.60706 11.2363C8.64818 11.2356 8.6893 11.2349 8.73167 11.2341C9.23974 11.2339 9.61102 11.3761 9.98438 11.7188C10.3817 12.1161 10.4537 12.7378 10.4564 13.2743C10.4453 13.8635 10.329 14.4323 9.90253 14.8669C9.61983 15.0977 9.29606 15.2408 8.93001 15.2397C8.88816 15.2397 8.8463 15.2397 8.80318 15.2397C8.73782 15.2394 8.73782 15.2394 8.67114 15.239C8.63079 15.2389 8.59043 15.2389 8.54885 15.2389C8.39845 15.2386 8.24805 15.238 8.09766 15.2373C7.76121 15.2364 7.42477 15.2354 7.07812 15.2344C7.07812 13.9196 7.07812 12.6047 7.07812 11.25ZM7.92188 11.9532C7.92188 12.804 7.92188 13.6547 7.92188 14.5313C8.70342 14.602 8.70342 14.602 9.33984 14.294C9.62432 13.8165 9.62432 13.2329 9.53888 12.6951C9.47252 12.4448 9.38328 12.2646 9.1875 12.0938C8.79131 11.885 8.36277 11.9532 7.92188 11.9532Z" fill="#2C2C2C"/>
<path d="M3.375 11.25C3.70758 11.2481 4.04016 11.2461 4.38281 11.2441C4.48708 11.2433 4.59134 11.2424 4.69876 11.2415C4.78241 11.2413 4.86606 11.241 4.94971 11.2408C4.99232 11.2404 5.03494 11.2399 5.07884 11.2394C5.46313 11.2393 5.78383 11.2833 6.09375 11.5312C6.35228 11.7898 6.47314 12.0778 6.4834 12.4453C6.46563 12.8541 6.38057 13.1512 6.09375 13.4531C5.80882 13.6835 5.50733 13.7428 5.14746 13.7637C5.09169 13.7672 5.03592 13.7707 4.97845 13.7743C4.72537 13.7832 4.472 13.7812 4.21875 13.7812C4.21875 14.2608 4.21875 14.7403 4.21875 15.2344C3.94031 15.2344 3.66187 15.2344 3.375 15.2344C3.375 13.9195 3.375 12.6047 3.375 11.25ZM4.21875 11.9531C4.21875 12.3089 4.21875 12.6647 4.21875 13.0312C4.42903 13.0356 4.42903 13.0356 4.64355 13.04C4.68706 13.0413 4.73057 13.0426 4.7754 13.0439C5.03302 13.0465 5.21013 13.0141 5.4375 12.8906C5.55702 12.7518 5.5767 12.6724 5.59277 12.4892C5.57646 12.2993 5.57646 12.2993 5.48438 12.1406C5.2099 11.9289 4.88304 11.9472 4.5498 11.9502C4.38593 11.9516 4.38593 11.9516 4.21875 11.9531Z" fill="#2C2C2C"/>
<path d="M11.0625 11.25C11.9752 11.25 12.8878 11.25 13.8281 11.25C13.8281 11.482 13.8281 11.7141 13.8281 11.9531C13.1939 11.9531 12.5597 11.9531 11.9062 11.9531C11.9062 12.247 11.9062 12.5409 11.9062 12.8438C12.4631 12.8438 13.02 12.8438 13.5938 12.8438C13.5938 13.0758 13.5938 13.3078 13.5938 13.5469C13.0369 13.5469 12.48 13.5469 11.9062 13.5469C11.9062 14.1038 11.9062 14.6606 11.9062 15.2344C11.6278 15.2344 11.3494 15.2344 11.0625 15.2344C11.0625 13.9195 11.0625 12.6047 11.0625 11.25Z" fill="#2C2C2C"/>
</g>
<defs>
<clipPath id="clip0_4034_12777">
<rect width="24" height="24" fill="white"/>
</clipPath>
</defs>
</svg>
