<svg width="20" height="20" viewBox="0 0 20 20" fill="none" xmlns="http://www.w3.org/2000/svg">
<path d="M4.16659 18.3334H15.8333M11.6666 10.8334V7.08341C11.6666 5.83341 12.4999 5.83341 12.4999 4.16675C12.4999 3.50371 12.2365 2.86782 11.7677 2.39898C11.2988 1.93014 10.663 1.66675 9.99992 1.66675C8.61659 1.66675 7.49992 2.50008 7.49992 4.16675C7.49992 5.83341 8.33325 5.83341 8.33325 7.08341V10.8334M16.0583 11.4417C15.8644 11.2484 15.6344 11.0952 15.3813 10.9908C15.1282 10.8864 14.857 10.8329 14.5833 10.8334H5.41659C4.86405 10.8334 4.33415 11.0529 3.94345 11.4436C3.55275 11.8343 3.33325 12.3642 3.33325 12.9167V14.1667C3.33325 14.3878 3.42105 14.5997 3.57733 14.756C3.73361 14.9123 3.94557 15.0001 4.16659 15.0001H15.8333C16.0543 15.0001 16.2662 14.9123 16.4225 14.756C16.5788 14.5997 16.6666 14.3878 16.6666 14.1667V12.9167C16.6666 12.3667 16.4499 11.8334 16.0583 11.4417Z" stroke="#656565" stroke-width="2" stroke-linecap="round" stroke-linejoin="round"/>
</svg>
